<mxfile host="app.diagrams.net" modified="2021-12-03T12:44:24.053Z" agent="5.0 (Windows NT 10.0; Win64; x64) AppleWebKit/537.36 (KHTML, like Gecko) Chrome/96.0.4664.45 Safari/537.36" etag="gSa_kbOkxh1R2lHb5Qq_" version="15.8.9" type="github">
  <diagram id="rSy3vBWlD8uKxvPKqa_b" name="Page-1">
    <mxGraphModel dx="1422" dy="705" grid="1" gridSize="10" guides="1" tooltips="1" connect="1" arrows="1" fold="1" page="1" pageScale="1" pageWidth="850" pageHeight="1100" math="0" shadow="0">
      <root>
        <mxCell id="0" />
        <mxCell id="1" parent="0" />
        <mxCell id="7oy1HxcPKjW8ExdO0LM7-1" value="" style="rounded=0;whiteSpace=wrap;html=1;" parent="1" vertex="1">
          <mxGeometry x="200" y="80" width="480" height="320" as="geometry" />
        </mxCell>
        <mxCell id="cdg_WAYX9xNV_joyq2Tx-1" value="" style="rounded=0;whiteSpace=wrap;html=1;" vertex="1" parent="1">
          <mxGeometry x="210" y="90" width="460" height="300" as="geometry" />
        </mxCell>
        <mxCell id="cdg_WAYX9xNV_joyq2Tx-2" value="" style="endArrow=none;html=1;rounded=0;entryX=0;entryY=0.1;entryDx=0;entryDy=0;entryPerimeter=0;exitX=0.998;exitY=0.103;exitDx=0;exitDy=0;exitPerimeter=0;" edge="1" parent="1" source="cdg_WAYX9xNV_joyq2Tx-1" target="cdg_WAYX9xNV_joyq2Tx-1">
          <mxGeometry width="50" height="50" relative="1" as="geometry">
            <mxPoint x="400" y="390" as="sourcePoint" />
            <mxPoint x="450" y="340" as="targetPoint" />
          </mxGeometry>
        </mxCell>
        <mxCell id="cdg_WAYX9xNV_joyq2Tx-3" value="Sign Up" style="text;html=1;align=center;verticalAlign=middle;resizable=0;points=[];autosize=1;strokeColor=none;fillColor=none;fontSize=19;" vertex="1" parent="1">
          <mxGeometry x="400" y="90" width="80" height="30" as="geometry" />
        </mxCell>
        <mxCell id="cdg_WAYX9xNV_joyq2Tx-4" value="idpelajar" style="rounded=0;whiteSpace=wrap;html=1;fontSize=19;align=left;spacingLeft=10;fontColor=#B3B3B3;" vertex="1" parent="1">
          <mxGeometry x="230" y="140" width="420" height="40" as="geometry" />
        </mxCell>
        <mxCell id="cdg_WAYX9xNV_joyq2Tx-5" value="namapelajar" style="rounded=0;whiteSpace=wrap;html=1;fontSize=19;align=left;spacingLeft=10;fontColor=#B3B3B3;" vertex="1" parent="1">
          <mxGeometry x="230" y="190" width="420" height="40" as="geometry" />
        </mxCell>
        <mxCell id="cdg_WAYX9xNV_joyq2Tx-6" value="kelas" style="rounded=0;whiteSpace=wrap;html=1;fontSize=19;align=left;spacingLeft=10;fontColor=#B3B3B3;" vertex="1" parent="1">
          <mxGeometry x="230" y="240" width="420" height="40" as="geometry" />
        </mxCell>
        <mxCell id="cdg_WAYX9xNV_joyq2Tx-7" value="password" style="rounded=0;whiteSpace=wrap;html=1;fontSize=19;align=left;spacingLeft=10;fontColor=#B3B3B3;" vertex="1" parent="1">
          <mxGeometry x="230" y="290" width="420" height="40" as="geometry" />
        </mxCell>
        <mxCell id="cdg_WAYX9xNV_joyq2Tx-8" value="Daftar" style="rounded=0;whiteSpace=wrap;html=1;fontSize=19;" vertex="1" parent="1">
          <mxGeometry x="311.25" y="340" width="95" height="40" as="geometry" />
        </mxCell>
        <mxCell id="cdg_WAYX9xNV_joyq2Tx-10" value="Cancel" style="rounded=0;whiteSpace=wrap;html=1;fontSize=19;" vertex="1" parent="1">
          <mxGeometry x="473.75" y="340" width="95" height="40" as="geometry" />
        </mxCell>
      </root>
    </mxGraphModel>
  </diagram>
</mxfile>
